<svg width="24" height="24" viewBox="0 0 24 24" fill="none" xmlns="http://www.w3.org/2000/svg">
<path d="M4 12.5C5.06417 11.529 6.38677 11 7.75 11C9.11323 11 10.4358 11.529 11.5 12.5C12.5642 13.471 13.8868 14 15.25 14C16.6132 14 17.9358 13.471 19 12.5" stroke="#F44336" stroke-width="1.5" stroke-linecap="round" stroke-linejoin="round"/>
<path d="M5.25 18H17.75C18.0815 18 18.3995 17.9109 18.6339 17.7522C18.8683 17.5935 19 17.3783 19 17.1538V10.3846C19 9.48696 18.4732 8.62607 17.5355 7.99133C16.5979 7.35659 15.3261 7 14 7H9C7.67392 7 6.40215 7.35659 5.46447 7.99133C4.52678 8.62607 4 9.48696 4 10.3846V17.1538C4 17.3783 4.1317 17.5935 4.36612 17.7522C4.60054 17.9109 4.91848 18 5.25 18" stroke="#F44336" stroke-width="1.5" stroke-linecap="round" stroke-linejoin="round"/>
</svg>
