<svg width="24" height="24" viewBox="0 0 24 24" fill="none" xmlns="http://www.w3.org/2000/svg">
<path d="M5 6H15C15.2652 6 15.5196 6.10536 15.7071 6.29289C15.8946 6.48043 16 6.73478 16 7V15C16 16.0609 15.5786 17.0783 14.8284 17.8284C14.0783 18.5786 13.0609 19 12 19H8C6.93913 19 5.92172 18.5786 5.17157 17.8284C4.42143 17.0783 4 16.0609 4 15V7C4 6.73478 4.10536 6.48043 4.29289 6.29289C4.48043 6.10536 4.73478 6 5 6" stroke="#F44336" stroke-width="1.5" stroke-linecap="round" stroke-linejoin="round"/>
<path d="M16 9H18C18.5304 9 19.0391 9.21071 19.4142 9.58579C19.7893 9.96086 20 10.4696 20 11V13C20 13.5304 19.7893 14.0391 19.4142 14.4142C19.0391 14.7893 18.5304 15 18 15H16" stroke="#F44336" stroke-width="1.5" stroke-linecap="round" stroke-linejoin="round"/>
</svg>
