<svg width="24" height="24" viewBox="0 0 24 24" fill="none" xmlns="http://www.w3.org/2000/svg">
<path d="M12 20L5.00001 13C4.60604 12.5732 4.3 12.073 4.09935 11.5279C3.8987 10.9828 3.80738 10.4036 3.83059 9.82322C3.87748 8.65112 4.38805 7.54565 5.25001 6.75C6.11196 5.95435 7.25468 5.5337 8.42679 5.58058C9.59889 5.62747 10.7044 6.13805 11.5 7C11.648 7.09889 11.822 7.15167 12 7.15167C12.178 7.15167 12.352 7.09889 12.5 7C13.2957 6.13805 14.4011 5.62747 15.5732 5.58058C16.7453 5.5337 17.8881 5.95435 18.75 6.75C19.612 7.54565 20.1225 8.65112 20.1694 9.82322C20.2163 10.9953 19.7957 12.138 19 13L12 20Z" stroke="#F44336" stroke-width="1.5" stroke-linecap="round" stroke-linejoin="round"/>
</svg>
