<svg width="24" height="24" viewBox="0 0 24 24" fill="none" xmlns="http://www.w3.org/2000/svg">
<path d="M18 15C17.9999 15.9469 17.7756 16.8804 17.3456 17.724C16.9156 18.5676 16.292 19.2975 15.5259 19.854C14.7597 20.4104 13.8727 20.7776 12.9374 20.9256C12.0022 21.0735 11.0451 20.998 10.1446 20.7052C9.24414 20.4124 8.42573 19.9106 7.75633 19.2408C7.08692 18.5711 6.58554 17.7525 6.29317 16.8518C6.0008 15.9512 5.92574 14.9941 6.07414 14.0589C6.22254 13.1237 6.59018 12.2369 7.147 11.471C9.073 9.13301 11.91 8.14401 10.995 3.00101C13.35 4.76201 16.835 8.38101 13.017 12.407C11.881 13.498 12.773 15.174 14.238 15C15.12 14.895 16.261 14.034 17.468 12.7C18 13.38 18 14.417 18 15Z" stroke="#F44336" stroke-width="1.5" stroke-linecap="round" stroke-linejoin="round"/>
</svg>
