<svg width="36" height="36" viewBox="0 0 36 36" fill="none" xmlns="http://www.w3.org/2000/svg">
<circle cx="18" cy="18" r="18" fill="#F3F3F3"/>
<path d="M16 20.0004C16.3259 20.333 16.7148 20.5972 17.1441 20.7776C17.5734 20.958 18.0344 21.0509 18.5 21.0509C18.9656 21.0509 19.4266 20.958 19.8559 20.7776C20.2852 20.5972 20.6741 20.333 21 20.0004L25 16.0004C25.663 15.3373 26.0355 14.4381 26.0355 13.5004C26.0355 12.5627 25.663 11.6634 25 11.0004C24.337 10.3373 23.4377 9.96484 22.5 9.96484C21.5623 9.96484 20.663 10.3373 20 11.0004L19.5 11.5004" stroke="#3F3F3F" stroke-width="1.5" stroke-linecap="round" stroke-linejoin="round"/>
<path d="M20.0004 15.9997C19.6745 15.6671 19.2855 15.4029 18.8563 15.2225C18.427 15.0421 17.966 14.9492 17.5004 14.9492C17.0347 14.9492 16.5738 15.0421 16.1445 15.2225C15.7152 15.4029 15.3263 15.6671 15.0004 15.9997L11.0004 19.9997C10.3373 20.6628 9.96484 21.562 9.96484 22.4997C9.96484 23.4374 10.3373 24.3367 11.0004 24.9997C11.6634 25.6628 12.5627 26.0353 13.5004 26.0353C14.4381 26.0353 15.3373 25.6628 16.0004 24.9997L16.5004 24.4997" stroke="#3F3F3F" stroke-width="1.5" stroke-linecap="round" stroke-linejoin="round"/>
</svg>
