<svg width="16" height="16" viewBox="0 0 16 16" fill="none" xmlns="http://www.w3.org/2000/svg">
<path d="M8 14C11.3137 14 14 11.3137 14 8C14 4.68629 11.3137 2 8 2C4.68629 2 2 4.68629 2 8C2 11.3137 4.68629 14 8 14Z" stroke="white" stroke-width="1.5" stroke-linecap="round" stroke-linejoin="round"/>
<path d="M8.12598 5.3335C8.81398 5.3335 9.38465 5.50416 9.83798 5.8455C10.2913 6.1815 10.582 6.6375 10.71 7.2135H9.52598C9.41398 6.9575 9.23532 6.75483 8.98998 6.6055C8.74998 6.45083 8.46465 6.3735 8.13398 6.3735C7.80865 6.3735 7.52065 6.44816 7.26998 6.5975C7.01932 6.74683 6.82465 6.96016 6.68598 7.2375C6.54732 7.51483 6.47798 7.84016 6.47798 8.2135C6.47798 8.8055 6.63532 9.26683 6.94998 9.5975C7.26998 9.92816 7.70465 10.0935 8.25398 10.0935C8.65932 10.0935 9.00598 9.9735 9.29398 9.7335C9.58732 9.4935 9.77665 9.16016 9.86198 8.7335H7.94998V7.9255H10.806V9.0135C10.726 9.38683 10.5687 9.73083 10.334 10.0455C10.1047 10.3602 9.80065 10.6135 9.42198 10.8055C9.04865 10.9922 8.61932 11.0855 8.13398 11.0855C7.57932 11.0855 7.08865 10.9655 6.66198 10.7255C6.24065 10.4802 5.91265 10.1415 5.67798 9.7095C5.44865 9.27216 5.33398 8.7735 5.33398 8.2135C5.33398 7.6535 5.44865 7.1575 5.67798 6.7255C5.91265 6.28816 6.24065 5.94683 6.66198 5.7015C7.08332 5.45616 7.57132 5.3335 8.12598 5.3335Z" fill="white"/>
</svg>
