<svg width="24" height="24" viewBox="0 0 24 24" fill="none" xmlns="http://www.w3.org/2000/svg">
<path d="M12.0011 20.0001L5.00108 13.0001C4.60711 12.5733 4.30107 12.0731 4.10042 11.528C3.89977 10.9829 3.80844 10.4037 3.83166 9.82333C3.87854 8.65122 4.38912 7.54575 5.25108 6.7501C6.11303 5.95445 7.25575 5.5338 8.42785 5.58069C9.59996 5.62757 10.7054 6.13815 11.5011 7.0001C11.6491 7.09899 11.8231 7.15177 12.0011 7.15177C12.1791 7.15177 12.3531 7.09899 12.5011 7.0001C13.2967 6.13815 14.4022 5.62757 15.5743 5.58069C16.7464 5.5338 17.8891 5.95445 18.7511 6.7501C19.613 7.54575 20.1236 8.65122 20.1705 9.82333C20.2174 10.9954 19.7967 12.1381 19.0011 13.0001L12.0011 20.0001Z" stroke="#F44336" stroke-width="1.5" stroke-linecap="round" stroke-linejoin="round"/>
</svg>
