<svg width="6" height="6" viewBox="0 0 6 6" fill="none" xmlns="http://www.w3.org/2000/svg">
<path d="M3 5C4.10457 5 5 4.10457 5 3C5 1.89543 4.10457 1 3 1C1.89543 1 1 1.89543 1 3C1 4.10457 1.89543 5 3 5Z" stroke="#3F3F3F" stroke-width="1.5" stroke-linecap="round" stroke-linejoin="round"/>
<path d="M1 6.99981L2.5 4.99981C3.53188 3.74361 4.82937 2.73174 6.29911 2.037C7.76886 1.34226 9.37433 0.981934 11 0.981934C12.6257 0.981934 14.2311 1.34226 15.7009 2.037C17.1706 2.73174 18.4681 3.74361 19.5 4.99981L21 6.99981" stroke="#3F3F3F" stroke-width="1.5" stroke-linecap="round" stroke-linejoin="round"/>
<path d="M1 1L2.5 3C3.53188 4.2562 4.82937 5.26807 6.29911 5.96281C7.76886 6.65755 9.37433 7.01788 11 7.01788C12.6257 7.01788 14.2311 6.65755 15.7009 5.96281C17.1706 5.26807 18.4681 4.2562 19.5 3L21 1" stroke="#3F3F3F" stroke-width="1.5" stroke-linecap="round" stroke-linejoin="round"/>
</svg>
