<?xml version="1.0" encoding="utf-8"?><svg xmlns="http://www.w3.org/2000/svg" xmlns:xlink="http://www.w3.org/1999/xlink"><symbol fill="none" viewBox="0 0 24 24" id="Arrow" xmlns="http://www.w3.org/2000/svg"><path d="M5 12h14m-4 4l4-4m-4-4l4 4"/></symbol><symbol fill="none" viewBox="0 0 24 24" id="Award" xmlns="http://www.w3.org/2000/svg"><path d="M12 15a6 6 0 100-12 6 6 0 000 12z"/><path d="M12.002 15.003l3.4 5.89L17 17.66l3.598.232-3.4-5.889m-10.396 0l-3.4 5.89L7 17.66l1.598 3.232 3.4-5.889"/></symbol><symbol fill="none" viewBox="0 0 24 24" id="Bag" xmlns="http://www.w3.org/2000/svg"><path d="M19 9l-2 9c-.093.573-.345 1.087-.71 1.453-.366.365-.822.559-1.29.547H9c-.468.012-.924-.182-1.29-.547-.365-.366-.617-.88-.71-1.453L5 9h14zM7 9a5 5 0 1110 0"/></symbol><symbol fill="none" viewBox="0 0 24 24" id="Book" xmlns="http://www.w3.org/2000/svg"><path d="M3 19a9 9 0 019 0 9 9 0 019 0M3 6a9 9 0 019 0 9 9 0 019 0M3 6v13m9-13v13m9-13v13"/></symbol><symbol fill="none" viewBox="0 0 24 24" id="Cake" xmlns="http://www.w3.org/2000/svg"><path d="M4 12.5c1.064-.971 2.387-1.5 3.75-1.5s2.686.529 3.75 1.5 2.387 1.5 3.75 1.5 2.686-.529 3.75-1.5"/><path d="M5.25 18h12.5c.331 0 .65-.09.884-.248.234-.159.366-.374.366-.598v-6.77c0-.897-.527-1.758-1.465-2.393C16.598 7.357 15.326 7 14 7H9c-1.326 0-2.598.357-3.536.991C4.527 8.626 4 9.487 4 10.385v6.769c0 .224.132.44.366.598A1.6 1.6 0 005.25 18"/></symbol><symbol fill="none" viewBox="0 0 24 24" id="Circle" xmlns="http://www.w3.org/2000/svg"><path d="M12 21a9 9 0 100-18 9 9 0 000 18z"/></symbol><symbol fill="none" viewBox="0 0 24 24" id="Circle-active" xmlns="http://www.w3.org/2000/svg"><path d="M12 21a9 9 0 100-18 9 9 0 000 18z"/><circle cx="12" cy="12" r="6" fill="#914204"/></symbol><symbol fill="none" viewBox="0 0 24 24" id="Circle-minus" xmlns="http://www.w3.org/2000/svg"><path d="M12 21a9 9 0 100-18 9 9 0 000 18zm-3-9h6"/></symbol><symbol fill="none" viewBox="0 0 24 24" id="Circle-plus" xmlns="http://www.w3.org/2000/svg"><path d="M12 21a9 9 0 100-18 9 9 0 000 18zm-3-9h6m-3-3v6"/></symbol><symbol fill="none" viewBox="0 0 24 24" id="Clock" xmlns="http://www.w3.org/2000/svg"><path d="M12 21a9 9 0 100-18 9 9 0 000 18z"/><path d="M12 7v5l3 3"/></symbol><symbol fill="none" viewBox="0 0 24 24" id="Discount" xmlns="http://www.w3.org/2000/svg"><path d="M9 15l6-6"/><path d="M9.5 10a.5.5 0 100-1 .5.5 0 000 1zm5 5a.5.5 0 100-1 .5.5 0 000 1z" fill="#000"/><path d="M5 7.2A2.2 2.2 0 017.2 5h1a2.2 2.2 0 001.55-.64l.7-.7a2.2 2.2 0 013.12 0l.7.7c.412.41.97.64 1.55.64h1a2.2 2.2 0 012.2 2.2v1c0 .58.23 1.138.64 1.55l.7.7a2.2 2.2 0 010 3.12l-.7.7a2.2 2.2 0 00-.64 1.55v1a2.2 2.2 0 01-2.2 2.2h-1a2.2 2.2 0 00-1.55.64l-.7.7a2.199 2.199 0 01-3.12 0l-.7-.7a2.2 2.2 0 00-1.55-.64h-1a2.2 2.2 0 01-2.2-2.2v-1a2.2 2.2 0 00-.64-1.55l-.7-.7a2.2 2.2 0 010-3.12l.7-.7A2.2 2.2 0 005 8.2v-1"/></symbol><symbol fill="none" viewBox="0 0 24 24" id="Drink" xmlns="http://www.w3.org/2000/svg"><path d="M5 6h10a1 1 0 011 1v8a4 4 0 01-4 4H8a4 4 0 01-4-4V7a1 1 0 011-1m11 3h2a2 2 0 012 2v2a2 2 0 01-2 2h-2"/></symbol><symbol fill="none" viewBox="0 0 24 24" id="Facebook" xmlns="http://www.w3.org/2000/svg"><path d="M12 3c-4.962 0-9 4.038-9 9s4.038 9 9 9 9-4.038 9-9-4.038-9-9-9zm0 1.5c4.151 0 7.5 3.349 7.5 7.5a7.483 7.483 0 01-6.384 7.41v-5.223h2.136l.335-2.17h-2.471v-1.185c0-.9.296-1.7 1.139-1.7h1.353V7.239c-.238-.032-.74-.102-1.692-.102-1.986 0-3.15 1.048-3.15 3.438v1.442H8.725v2.17h2.041v5.204A7.482 7.482 0 014.5 12c0-4.151 3.349-7.5 7.5-7.5z" fill="#2F80ED"/></symbol><symbol fill="none" viewBox="0 0 24 24" id="Favorite" xmlns="http://www.w3.org/2000/svg"><path d="M12 20l-7-7a4.423 4.423 0 116.5-6 .9.9 0 001 0 4.423 4.423 0 016.5 6l-7 7z"/></symbol><symbol fill="none" viewBox="0 0 24 24" id="Flame" xmlns="http://www.w3.org/2000/svg"><path d="M18 15a6 6 0 11-10.853-3.529c1.926-2.338 4.763-3.327 3.848-8.47 2.355 1.761 5.84 5.38 2.022 9.406-1.136 1.091-.244 2.767 1.221 2.593.882-.105 2.023-.966 3.23-2.3.532.68.532 1.717.532 2.3z"/></symbol><symbol fill="none" viewBox="0 0 24 24" id="Gift" xmlns="http://www.w3.org/2000/svg"><path d="M20 8H4a1 1 0 00-1 1v2a1 1 0 001 1h16a1 1 0 001-1V9a1 1 0 00-1-1zm-8 0v13"/><path d="M19 12v7a2 2 0 01-2 2H7a2 2 0 01-2-2v-7m2.5-4a2.5 2.5 0 110-5c.965-.017 1.91.451 2.713 1.343C11.015 5.235 11.638 6.51 12 8c.362-1.49.985-2.765 1.787-3.657.803-.892 1.748-1.36 2.713-1.343a2.5 2.5 0 010 5"/></symbol><symbol fill="none" viewBox="0 0 24 24" id="Google" xmlns="http://www.w3.org/2000/svg"><path d="M21.805 10.041H21V10h-9v4h5.651A5.998 5.998 0 016 12a6 6 0 016-6c1.53 0 2.921.577 3.98 1.52l2.83-2.83A9.954 9.954 0 0012 2C6.478 2 2 6.478 2 12c0 5.523 4.478 10 10 10 5.523 0 10-4.477 10-10 0-.67-.069-1.325-.195-1.959z" fill="#FFC107"/><path d="M3.153 7.346l3.286 2.409A5.997 5.997 0 0112 6c1.53 0 2.921.577 3.98 1.52l2.83-2.83A9.954 9.954 0 0012 2a9.994 9.994 0 00-8.847 5.346z" fill="#FF3D00"/><path d="M12 22c2.583 0 4.93-.988 6.704-2.596l-3.095-2.619A5.955 5.955 0 0112 18a5.997 5.997 0 01-5.641-3.973L3.098 16.54C4.753 19.777 8.114 22 12 22z" fill="#4CAF50"/><path d="M21.805 10.041H21V10h-9v4h5.651a6.02 6.02 0 01-2.043 2.785h.002l3.095 2.619C18.485 19.602 22 17 22 12c0-.67-.069-1.325-.195-1.959z" fill="#1976D2"/></symbol><symbol fill="none" viewBox="0 0 24 24" id="Ice-cream" xmlns="http://www.w3.org/2000/svg"><path d="M4 20l4-4m-3-3l6 6m0 0l7-7a4.243 4.243 0 00-6-6l-7 7"/></symbol><symbol fill="none" viewBox="0 0 24 24" id="Map" xmlns="http://www.w3.org/2000/svg"><path d="M12 14a3 3 0 100-6 3 3 0 000 6z"/><path d="M17.657 16.657L13.414 20.9a1.997 1.997 0 01-2.827 0l-4.244-4.243a8 8 0 1111.314 0z"/></symbol><symbol fill="none" viewBox="0 0 24 24" id="Money" xmlns="http://www.w3.org/2000/svg"><path d="M19 9H9a2 2 0 00-2 2v6a2 2 0 002 2h10a2 2 0 002-2v-6a2 2 0 00-2-2z"/><path d="M14 16a2 2 0 100-4 2 2 0 000 4zm3-7V7a2 2 0 00-2-2H5a2 2 0 00-2 2v6a2 2 0 002 2h2"/></symbol><symbol fill="none" viewBox="0 0 24 24" id="Pen" xmlns="http://www.w3.org/2000/svg"><path d="M4 20h4L18.5 9.5a2.829 2.829 0 00-4-4L4 16v4zm9.5-13.5l4 4"/></symbol><symbol fill="none" viewBox="0 0 24 23" id="Phone" xmlns="http://www.w3.org/2000/svg"><path d="M5 3h4l2 5-2.5 1.5a11 11 0 005 5L15 12l5 2v4a2 2 0 01-2 2A16 16 0 013 5a2 2 0 012-2"/></symbol><symbol fill="none" viewBox="0 0 24 24" id="Search" xmlns="http://www.w3.org/2000/svg"><path d="M10 17a7 7 0 100-14 7 7 0 000 14zm11 4l-6-6"/></symbol><symbol fill="none" viewBox="0 0 24 24" id="Share" xmlns="http://www.w3.org/2000/svg"><path d="M6 15a3 3 0 100-6 3 3 0 000 6zm12-6a3 3 0 100-6 3 3 0 000 6zm0 12a3 3 0 100-6 3 3 0 000 6zM8.7 10.7l6.6-3.4m-6.6 6l6.6 3.4"/></symbol><symbol fill="none" viewBox="0 0 24 24" id="Shopping-cart" xmlns="http://www.w3.org/2000/svg"><path d="M9 21a2 2 0 100-4 2 2 0 000 4zm8 0a2 2 0 100-4 2 2 0 000 4z"/><path d="M3 3h2l2 12a3 3 0 003 2h7a3 3 0 003-2l1-7H5.8"/></symbol><symbol fill="none" viewBox="0 0 24 24" id="Smile" xmlns="http://www.w3.org/2000/svg"><path d="M12 21a9 9 0 100-18 9 9 0 000 18zM9 9h.01M15 9h.01"/><path d="M16 13H8m0 0a4 4 0 108 0H8z"/></symbol><symbol fill="none" viewBox="0 0 24 24" id="Square-check" xmlns="http://www.w3.org/2000/svg"><path d="M18 4H6a2 2 0 00-2 2v12a2 2 0 002 2h12a2 2 0 002-2V6a2 2 0 00-2-2z"/><path d="M9 12l2 2 4-4"/></symbol><symbol fill="none" viewBox="0 0 24 24" id="Squarebox" xmlns="http://www.w3.org/2000/svg"><path d="M18 4H6a2 2 0 00-2 2v12a2 2 0 002 2h12a2 2 0 002-2V6a2 2 0 00-2-2z"/></symbol><symbol fill="none" viewBox="0 0 24 24" id="Store" xmlns="http://www.w3.org/2000/svg"><path d="M3 21h18M15 8a3 3 0 006 0V7H3l2-4h14l2 4M3 7v1a3 3 0 106 0V7H3zm6 1a3 3 0 106 0V7L9 8zM5 21V10.85M19 21V10.85M9 21v-4a2 2 0 012-2h2a2 2 0 012 2v4"/></symbol><symbol fill="none" viewBox="0 0 24 24" id="X-mark" xmlns="http://www.w3.org/2000/svg"><path d="M18 6L6 18M6 6l12 12"/></symbol><symbol fill="none" viewBox="0 0 24 24" id="chev-down" xmlns="http://www.w3.org/2000/svg"><path d="M6 9l6 6 6-6"/></symbol></svg>